<svg xmlns="http://www.w3.org/2000/svg" width="32" height="32"><g fill="none" fill-rule="evenodd"><circle cx="16" cy="16" r="16" fill="#0B58D2"/><path fill="#FFF" fill-rule="nonzero" d="M24.667 23.078a.963.963 0 0 1-.963.963H8.296a.963.963 0 1 1 0-1.926V10.896A1.926 1.926 0 0 1 9.51 9.115l5.777-2.311a1.926 1.926 0 0 1 2.639 1.83v13.48h1.926v-8.849a.481.481 0 0 1 .693-.433l2.89 1.444c.163.083.267.25.269.433v7.406c.532 0 .963.43.963.963ZM16 17.3h-5.778v1.926H16V17.3Zm0-4.815h-5.778v1.926H16v-1.926Z"/></g></svg>